# xmcd
#
# Track frame offsets:
#	150
#	14009
#	29414
#	41841
#	53922
#	63831
#	76461
#	89026
#	102047
#	114219
#	130958
#	143314
#	158543
#	174527
#	199323
#	212122
#	222150
#	250592
#
# Disc length: 3349 seconds
#
# Revision: 1
# Processed by: cddbd v1.5.2PL0 Copyright (c) Steve Scherf et al.
# Submitted via: audiograbber 1.83.01
#
DISCID=f60d1312
DTITLE=Various Artist - TT-243-07
DYEAR=2001
DGENRE=Karaoke
TTITLE0=Tanya Tucker - Texas When I Die
TTITLE1=George Jones - The Grand Tour
TTITLE2=Webb Pierce - There Stands The Glass
TTITLE3=Buck Owens - Together Again
TTITLE4=Patsy Cline - Walkin' After Midnight
TTITLE5=Ernest T Tubb - Walkin' The Floor Over You
TTITLE6=Ernest T Tubb - Waltz Across Texas
TTITLE7=Freddy Fender - Wasted Days And Wasted Nights
TTITLE8=Jim Reeves - Welcome To My World
TTITLE9=Willie Nelson - Whisky River
TTITLE10=George Jones - White Lighting
TTITLE11=George Jones - Who's Gonna Fill Their Shoes
TTITLE12=Kris Kristofferson - Why Me Lord
TTITLE13=David Allen Coe - You Never Even Called Me By My Name
TTITLE14=Hank Williams - Your Cheatin' Heart
TTITLE15=Tammy Wynette - Your Good Girl's Gonna Go Bad
TTITLE16=David Frissell and Shelly West - You're The Reason God Made Oklahoma
TTITLE17=N/A Data Track - Data Track
EXTD=
EXTT0=
EXTT1=
EXTT2=
EXTT3=
EXTT4=
EXTT5=
EXTT6=
EXTT7=
EXTT8=
EXTT9=
EXTT10=
EXTT11=
EXTT12=
EXTT13=
EXTT14=
EXTT15=
EXTT16=
EXTT17=
PLAYORDER=
